name C:/MyDriveSym/Projects/mobilecap/Data\Session20210903_0002\mocap\ForceDataProcessed\walkingTS1_forces.mot
datacolumns 19
datarows 29
range 1.10200000 1.11600000
endheader 
time	R_ground_force_vx	R_ground_force_vy	R_ground_force_vz	R_ground_force_px	R_ground_force_py	R_ground_force_pz	R_ground_torque_x	R_ground_torque_y	R_ground_torque_z	L_ground_force_vx	L_ground_force_vy	L_ground_force_vz	L_ground_force_px	L_ground_force_py	L_ground_force_pz	L_ground_torque_x	L_ground_torque_y	L_ground_torque_z	
          1.10200000	          0.00000000	          0.00000000	          0.00000000	          1.21272500	          0.00000000	         -0.14774700	          0.00000000	          0.00000000	          0.00000000	         41.65173200	        541.82061500	         30.64032100	          0.92137200	          0.00600000	         -0.31436900	          0.00000000	          1.08174100	          0.00000000	
          1.10250000	          0.00000000	          0.00000000	          0.00000000	          1.21403500	          0.00000000	         -0.14775800	          0.00000000	          0.00000000	          0.00000000	         41.87800600	        541.98597800	         30.66493500	          0.92151700	          0.00600000	         -0.31433300	          0.00000000	          1.07607600	          0.00000000	
          1.10300000	          0.00000000	          0.00000000	          0.00000000	          1.21534400	          0.00000000	         -0.14777000	          0.00000000	          0.00000000	          0.00000000	         42.10480500	        542.15109000	         30.68917400	          0.92166200	          0.00600000	         -0.31429700	          0.00000000	          1.07043300	          0.00000000	
          1.10350000	          0.00000000	          0.00000000	          0.00000000	          1.21665400	          0.00000000	         -0.14778100	          0.00000000	          0.00000000	          0.00000000	         42.33212900	        542.31593500	         30.71303100	          0.92180700	          0.00600000	         -0.31426100	          0.00000000	          1.06481100	          0.00000000	
          1.10400000	          0.00000000	          0.00000000	          0.00000000	          1.21796300	          0.00000000	         -0.14779300	          0.00000000	          0.00000000	          0.00000000	         42.55997400	        542.48050200	         30.73650000	          0.92195200	          0.00600000	         -0.31422400	          0.00000000	          1.05921300	          0.00000000	
          1.10450000	          0.00000000	          0.00000000	          0.00000000	          1.21927300	          0.00000000	         -0.14780400	          0.00000000	          0.00000000	          0.00000000	         42.78833800	        542.64477600	         30.75957600	          0.92209700	          0.00600000	         -0.31418800	          0.00000000	          1.05363700	          0.00000000	
          1.10500000	          0.00000000	          0.00000000	          0.00000000	          1.22058200	          0.00000000	         -0.14781600	          0.00000000	          0.00000000	          0.00000000	         43.01721900	        542.80874300	         30.78225400	          0.92224200	          0.00600000	         -0.31415100	          0.00000000	          1.04808600	          0.00000000	
          1.10550000	          0.00000000	          0.00000000	          0.00000000	          1.22189200	          0.00000000	         -0.14782700	          0.00000000	          0.00000000	          0.00000000	         43.24661600	        542.97238800	         30.80452700	          0.92238600	          0.00600000	         -0.31411500	          0.00000000	          1.04255900	          0.00000000	
          1.10600000	          0.00000000	          0.00000000	          0.00000000	          1.22320100	          0.00000000	         -0.14783900	          0.00000000	          0.00000000	          0.00000000	         43.47652400	        543.13569700	         30.82639100	          0.92253100	          0.00600000	         -0.31407800	          0.00000000	          1.03705600	          0.00000000	
          1.10650000	          0.00000000	          0.00000000	          0.00000000	          1.22451100	          0.00000000	         -0.14785100	          0.00000000	          0.00000000	          0.00000000	         43.70694300	        543.29865400	         30.84784000	          0.92267500	          0.00600000	         -0.31404100	          0.00000000	          1.03157900	          0.00000000	
          1.10700000	          0.00000000	          0.00000000	          0.00000000	          1.22582000	          0.00000000	         -0.14786200	          0.00000000	          0.00000000	          0.00000000	         43.93786800	        543.46124400	         30.86886700	          0.92281900	          0.00600000	         -0.31400400	          0.00000000	          1.02612800	          0.00000000	
          1.10750000	          0.00000000	          0.00000000	          0.00000000	          1.22713000	          0.00000000	         -0.14787400	          0.00000000	          0.00000000	          0.00000000	         44.16929700	        543.62345200	         30.88946900	          0.92296400	          0.00600000	         -0.31396700	          0.00000000	          1.02070300	          0.00000000	
          1.10800000	          0.00000000	          0.00000000	          0.00000000	          1.22843900	          0.00000000	         -0.14788500	          0.00000000	          0.00000000	          0.00000000	         44.40122800	        543.78526000	         30.90963800	          0.92310800	          0.00600000	         -0.31393000	          0.00000000	          1.01530500	          0.00000000	
          1.10850000	          0.00000000	          0.00000000	          0.00000000	          1.22974900	          0.00000000	         -0.14789700	          0.00000000	          0.00000000	          0.00000000	         44.63365700	        543.94665400	         30.92937000	          0.92325200	          0.00600000	         -0.31389300	          0.00000000	          1.00993500	          0.00000000	
          1.10900000	          0.00000000	          0.00000000	          0.00000000	          1.23105800	          0.00000000	         -0.14790800	          0.00000000	          0.00000000	          0.00000000	         44.86658100	        544.10761600	         30.94866000	          0.92339600	          0.00600000	         -0.31385500	          0.00000000	          1.00459300	          0.00000000	
          1.10950000	          0.00000000	          0.00000000	          0.00000000	          1.23236800	          0.00000000	         -0.14792000	          0.00000000	          0.00000000	          0.00000000	         45.09999600	        544.26813000	         30.96750100	          0.92353900	          0.00600000	         -0.31381800	          0.00000000	          0.99927900	          0.00000000	
          1.11000000	          0.00000000	          0.00000000	          0.00000000	          1.23367700	          0.00000000	         -0.14793100	          0.00000000	          0.00000000	          0.00000000	         45.33390100	        544.42817800	         30.98588800	          0.92368300	          0.00600000	         -0.31378000	          0.00000000	          0.99399500	          0.00000000	
          1.11050000	          0.00000000	          0.00000000	          0.00000000	          1.23498700	          0.00000000	         -0.14794300	          0.00000000	          0.00000000	          0.00000000	         45.56829000	        544.58774300	         31.00381600	          0.92382600	          0.00600000	         -0.31374300	          0.00000000	          0.98874000	          0.00000000	
          1.11100000	          0.00000000	          0.00000000	          0.00000000	          1.23629600	          0.00000000	         -0.14795500	          0.00000000	          0.00000000	          0.00000000	         45.80316200	        544.74680600	         31.02127900	          0.92397000	          0.00600000	         -0.31370500	          0.00000000	          0.98351500	          0.00000000	
          1.11150000	          0.00000000	          0.00000000	          0.00000000	          1.23760500	          0.00000000	         -0.14796600	          0.00000000	          0.00000000	          0.00000000	         46.03851100	        544.90534900	         31.03827300	          0.92411300	          0.00600000	         -0.31366700	          0.00000000	          0.97832100	          0.00000000	
          1.11200000	          0.00000000	          0.00000000	          0.00000000	          1.23891500	          0.00000000	         -0.14797800	          0.00000000	          0.00000000	          0.00000000	         46.27433400	        545.06335400	         31.05479100	          0.92425600	          0.00600000	         -0.31362900	          0.00000000	          0.97315900	          0.00000000	
          1.11250000	          0.00000000	          0.00000000	          0.00000000	          1.24022400	          0.00000000	         -0.14798900	          0.00000000	          0.00000000	          0.00000000	         46.51062700	        545.22080200	         31.07082800	          0.92439900	          0.00600000	         -0.31359100	          0.00000000	          0.96802800	          0.00000000	
          1.11300000	          0.00000000	          0.00000000	          0.00000000	          1.24153400	          0.00000000	         -0.14800100	          0.00000000	          0.00000000	          0.00000000	         46.74738700	        545.37767400	         31.08638000	          0.92454200	          0.00600000	         -0.31355300	          0.00000000	          0.96292900	          0.00000000	
          1.11350000	          0.00000000	          0.00000000	          0.00000000	          1.24284300	          0.00000000	         -0.14801200	          0.00000000	          0.00000000	          0.00000000	         46.98460900	        545.53394900	         31.10144000	          0.92468400	          0.00600000	         -0.31351500	          0.00000000	          0.95786300	          0.00000000	
          1.11400000	          0.00000000	          0.00000000	          0.00000000	          1.24415300	          0.00000000	         -0.14802400	          0.00000000	          0.00000000	          0.00000000	         47.22228900	        545.68960800	         31.11600400	          0.92482700	          0.00600000	         -0.31347700	          0.00000000	          0.95283000	          0.00000000	
          1.11450000	          0.00000000	          0.00000000	          0.00000000	          1.24546200	          0.00000000	         -0.14803500	          0.00000000	          0.00000000	          0.00000000	         47.46042200	        545.84463000	         31.13006600	          0.92496900	          0.00600000	         -0.31343800	          0.00000000	          0.94783100	          0.00000000	
          1.11500000	          0.00000000	          0.00000000	          0.00000000	          1.24677200	          0.00000000	         -0.14804700	          0.00000000	          0.00000000	          0.00000000	         47.69900500	        545.99899400	         31.14362100	          0.92511100	          0.00600000	         -0.31340000	          0.00000000	          0.94286700	          0.00000000	
          1.11550000	          0.00000000	          0.00000000	          0.00000000	          1.24808100	          0.00000000	         -0.14805900	          0.00000000	          0.00000000	          0.00000000	         47.93803200	        546.15268000	         31.15666400	          0.92525400	          0.00600000	         -0.31336200	          0.00000000	          0.93793700	          0.00000000	
          1.11600000	          0.00000000	          0.00000000	          0.00000000	          1.24939100	          0.00000000	         -0.14807000	          0.00000000	          0.00000000	          0.00000000	         48.17750000	        546.30566500	         31.16918900	          0.92539500	          0.00600000	         -0.31332300	          0.00000000	          0.93304300	          0.00000000	
